<svg xmlns="http://www.w3.org/2000/svg" viewBox="0 0 448 448" role="img" aria-label="WhatsApp logo">
  <path fill="#25D366" d="M380.9 65.1C339.2 23.2 283.7.1 224.6 0 102.8 0 3.7 99.1 3.6 220.9c0 38.9 10.2 76.9 29.6 110.4L1.7 446.4l117.8-30.9c32.4 17.7 68.9 27 106 27h.1c121.7 0 220.9-99.1 221-220.9.1-59-22.9-114.6-65.7-156.5z"/>
  <path fill="#FFFFFF" d="M224.6 405.2h-.1c-32.9 0-65.2-8.8-93.4-25.5l-6.7-4-69.9 18.3 18.7-68.1-4.4-7c-18.4-29.3-28.1-63.2-28.1-98C40.8 119.7 123.3 37.2 224.7 37.2c49.1 0 95.2 19.2 129.9 53.9 34.7 34.8 53.8 81 53.8 130.2-.1 101.4-82.5 183.9-183.8 183.9zm100.8-137.6c-5.5-2.8-32.7-16.1-37.8-17.9-5.1-1.9-8.8-2.8-12.5 2.8-3.7 5.5-14.3 17.9-17.6 21.7-3.2 3.7-6.5 4.2-12 1.4-32.7-16.4-54.2-29.3-75.8-66.3-5.7-9.8 5.7-9.1 16.4-30.3 1.8-3.7.9-6.9-.5-9.7-1.4-2.8-12.5-30.1-17.1-41.2-4.5-10.8-9.1-9.3-12.5-9.5-3.2-.2-6.9-.2-10.6-.2s-9.7 1.4-14.8 6.9c-5.1 5.5-19.4 19-19.4 46.3s19.9 53.7 22.7 57.4c2.8 3.7 39.1 59.7 94.8 83.7 35.2 15.2 49 16.5 66.6 13.9 10.7-1.6 32.7-13.4 37.3-26.4 4.6-13 4.6-24.1 3.2-26.4-1.4-2.5-5-3.9-10.4-6.2z"/>
</svg>
